<svg width="82" height="35" viewBox="0 0 82 35" fill="none" xmlns="http://www.w3.org/2000/svg">
<g clip-path="url(#clip0)">
<path d="M12.885 17.6081C12.885 22.4876 9.23169 23.8016 5.03035 23.8016C3.90975 23.8016 2.58542 23.5158 1.14867 23.0313C0.800898 22.9163 0.340717 22.6898 -0.00354004 22.6026C0.168589 21.8881 0.196691 20.9471 0.196691 20.6055C0.196691 20.2082 0.168589 19.5774 0.112383 18.8942H0.456641C0.540949 19.8353 0.829001 20.5498 1.23298 21.0621C2.03741 22.0589 3.50578 22.4319 5.00224 22.4319C6.52681 22.4319 10.8406 22.404 10.8406 18.3226C10.8406 12.272 0.340717 14.0705 0.340717 6.70591C0.340717 3.2554 3.30203 0.627441 8.19541 0.627441C9.77618 0.627441 10.6403 1.08402 11.7328 1.11191C11.501 1.76715 11.4167 2.65244 11.4167 3.1369C11.4167 3.64925 11.4167 4.22085 11.4729 5.1619H11.1286C11.0443 4.16508 10.7246 3.1369 10.1802 2.62107C9.57595 2.08084 8.71179 1.91005 8.19541 1.91005C4.22591 1.91005 2.15334 3.59348 2.15334 6.33298C2.15685 11.6447 12.885 10.5015 12.885 17.6081Z" fill="#AD986E"/>
<path d="M24.3931 13.3282C25.3697 13.3282 26.954 13.3561 27.8743 13.3561C29.0546 13.3561 30.3193 13.3282 31.5558 13.3282C30.5476 10.5887 28.1905 4.68102 28.1905 4.68102C26.954 7.56341 26.1776 9.33398 25.0254 11.8992L24.3931 13.3282ZM39.9514 23.1743C37.8789 23.1743 37.1342 23.0593 36.3578 23.0593C35.6693 23.0593 34.489 23.1743 32.3005 23.1743V22.8293C32.6448 22.8293 33.3087 22.7735 33.6248 22.6864C34.345 22.4877 34.5171 22.059 34.5171 21.6024C34.5171 21.348 34.489 21.0309 34.2607 20.4035C33.9445 19.574 33.112 17.5211 32.0476 14.6945C30.4949 14.6945 28.9422 14.6666 27.8462 14.6666C26.954 14.6666 25.4013 14.6945 23.7889 14.6945C22.6683 17.3503 22.0044 19.1488 21.748 19.9748C21.5758 20.515 21.5196 21.0309 21.5196 21.3445C21.5196 21.8011 21.748 22.2019 22.3522 22.4564C22.7842 22.655 23.6449 22.77 24.3369 22.77V23.1709C22.3803 23.1709 21.5758 23.0558 20.3955 23.0558C18.8428 23.0558 18.8428 23.1709 16.5981 23.1709V22.8293C16.83 22.8293 17.3464 22.7735 17.6625 22.6585C18.3229 22.4285 18.7831 22.059 19.0747 21.6024C19.2187 21.3759 19.6508 20.6056 20.111 19.6332C20.9681 17.8069 22.1203 15.3253 23.817 11.5019C25.5137 7.67843 28.7631 0.571777 28.7631 0.571777H29.0511C30.1436 3.99789 32.2408 9.24684 33.393 12.1885C34.3133 14.555 35.3777 17.3259 36.126 19.0093C36.7583 20.4349 37.1623 21.4909 37.8824 22.1183C38.3988 22.547 39.4948 22.8328 39.955 22.8328V23.1743H39.9514Z" fill="#AD986E"/>
<path d="M73.9486 23.1739V22.8289C74.4088 22.8289 75.157 22.686 75.5575 22.4873C76.6218 21.975 76.8221 20.7481 76.8221 18.8625C76.8783 16.7783 76.8783 12.1567 76.8783 12.1567C76.8783 12.1567 76.8221 6.73348 76.8221 5.4195C76.8221 3.45027 76.6183 2.39421 75.6418 1.85398C75.2378 1.62394 74.6055 1.5403 73.9451 1.5403V1.19873C75.9298 1.19873 77.082 1.31375 77.9989 1.31375C79.1511 1.31375 80.2155 1.19873 81.9965 1.19873V1.5403C81.1358 1.5403 80.5597 1.62394 80.1277 1.91323C79.2705 2.50923 79.0387 3.53741 79.0387 5.42299C79.0387 7.36433 78.9825 12.1881 78.9825 12.1881C78.9825 12.1881 79.0387 17.5207 79.0387 18.8625C79.0387 20.5739 79.2389 21.9436 80.3033 22.4594C80.7354 22.6581 81.3958 22.8289 82 22.8289V23.1704C80.4192 23.1704 78.7225 23.0275 77.9181 23.0275C77.0855 23.031 75.445 23.1739 73.9486 23.1739Z" fill="#AD986E"/>
<path d="M64.9768 23.5995C59.6268 16.8065 53.128 10.5015 48.1222 5.10612C48.1222 6.84532 48.066 13.6383 48.066 15.1788C48.066 17.6325 48.1222 19.173 48.1222 19.173C48.1504 20.6857 48.4103 21.6267 48.9267 22.1112C49.4466 22.6235 50.1913 22.7107 51.0836 22.8257V23.1673C49.2428 23.1673 47.9466 23.0522 47.374 23.0522C46.7979 23.0522 45.8494 23.1673 43.6926 23.1673V22.8257C44.4408 22.7421 45.0169 22.627 45.5052 22.3412C46.2534 21.9125 46.6539 21.0551 46.6539 19.173C46.6539 19.173 46.682 14.6909 46.682 11.0975C46.682 7.47268 46.6539 3.96292 46.6539 -0.00341797H47.0298C51.3435 5.44769 58.7064 13.3246 63.7684 18.4028C63.7684 16.6043 63.7965 13.2932 63.7965 11.6098C63.7965 10.5537 63.7684 8.8982 63.7684 5.18977C63.7684 3.56211 63.5682 2.62106 63.0202 2.13659C62.5319 1.70789 61.6958 1.53711 60.8352 1.53711V1.19903C61.9839 1.19903 62.704 1.31405 64.5166 1.31405C66.5295 1.31405 66.8737 1.19903 68.1981 1.19903V1.5406C67.5939 1.5406 66.9054 1.62425 66.4171 1.91005C65.6688 2.36663 65.2368 3.30768 65.2368 5.19326C65.2368 6.44799 65.2087 8.27431 65.2087 11.4704C65.2087 13.7812 65.2368 20.975 65.2368 23.5995H64.9768Z" fill="#AD986E"/>
<path d="M24.3439 30.3716H26.0336C26.2971 30.3716 26.5289 30.4099 26.7291 30.4831C26.9294 30.5563 27.0945 30.6574 27.2315 30.7898C27.365 30.9188 27.4633 31.0687 27.5301 31.2394C27.5968 31.4102 27.6319 31.5949 27.6319 31.7901C27.6319 32.0829 27.5687 32.3408 27.4352 32.5569C27.3052 32.7765 27.1226 32.9508 26.8872 33.0797L27.8954 34.8886H26.7643L25.9177 33.2296H25.3451V34.8886H24.3439V30.3716ZM25.9809 32.407C26.1706 32.407 26.3217 32.3513 26.4306 32.2397C26.5395 32.1247 26.5921 31.9853 26.5921 31.811C26.5921 31.6263 26.5395 31.4799 26.4306 31.3719C26.3217 31.2638 26.1706 31.2081 25.9809 31.2081H25.3451V32.4035H25.9809V32.407Z" fill="#AD986E"/>
<path d="M30.1893 30.3716H33.2981V31.2638H31.2185V32.1456H32.8344V33.01H31.2185V33.9859H33.4457V34.8851H30.1893V30.3716Z" fill="#AD986E"/>
<path d="M36.1962 33.5398C36.2559 33.6025 36.3227 33.6687 36.4035 33.7315C36.4807 33.7977 36.5721 33.8569 36.6704 33.9127C36.7688 33.965 36.8742 34.0103 36.9901 34.0451C37.106 34.08 37.229 34.0974 37.3625 34.0974C37.4397 34.0974 37.517 34.087 37.5943 34.0626C37.6716 34.0382 37.7419 34.0068 37.8051 33.965C37.8683 33.9231 37.921 33.8709 37.9596 33.8081C37.9983 33.7454 38.0159 33.6792 38.0159 33.6025C38.0159 33.4352 37.9351 33.3062 37.77 33.2156C37.6084 33.125 37.3484 33.0309 36.9936 32.9403C36.8215 32.8985 36.6599 32.8427 36.5124 32.7625C36.3648 32.6858 36.2384 32.5952 36.133 32.4837C36.0241 32.3756 35.9433 32.2537 35.8836 32.1108C35.8274 31.9713 35.7957 31.8145 35.7957 31.6437C35.7957 31.452 35.8274 31.2743 35.8976 31.107C35.9644 30.9397 36.0697 30.7933 36.2067 30.6643C36.3437 30.5354 36.5159 30.4343 36.7231 30.3576C36.9304 30.2844 37.1763 30.2461 37.4573 30.2461C37.6892 30.2461 37.8929 30.2705 38.0721 30.3158C38.2512 30.3611 38.4023 30.4204 38.5252 30.4831C38.6482 30.5493 38.7535 30.6155 38.8308 30.6887C38.9116 30.7584 38.9713 30.8142 39.0135 30.8525L38.4198 31.5008C38.3707 31.459 38.3144 31.4137 38.2477 31.3684C38.181 31.3196 38.1072 31.2778 38.0264 31.2359C37.9456 31.1941 37.8543 31.1627 37.7594 31.1349C37.6611 31.107 37.5557 31.093 37.4503 31.093C37.3765 31.093 37.3063 31.1035 37.236 31.1279C37.1657 31.1523 37.1025 31.1802 37.0463 31.2185C36.9901 31.2568 36.9444 31.3022 36.9093 31.3544C36.8742 31.4067 36.8566 31.4625 36.8566 31.5217C36.8566 31.6751 36.9374 31.8006 37.1025 31.8947C37.2676 31.9888 37.4924 32.0689 37.777 32.1317C37.9456 32.1735 38.1107 32.2293 38.2723 32.2955C38.4339 32.3652 38.5779 32.4558 38.7044 32.5708C38.8308 32.6824 38.9327 32.8218 39.01 32.9891C39.0873 33.1564 39.1259 33.355 39.1259 33.5886C39.1259 33.7907 39.0802 33.9789 38.9889 34.1497C38.8976 34.3205 38.7746 34.4704 38.6165 34.5958C38.4585 34.7213 38.2758 34.8189 38.065 34.8921C37.8543 34.9618 37.6259 34.9966 37.38 34.9966C37.1517 34.9966 36.9444 34.9757 36.7583 34.9339C36.5721 34.8921 36.4035 34.8328 36.2559 34.7666C36.1049 34.6969 35.9714 34.6167 35.8484 34.5261C35.729 34.4355 35.6236 34.3449 35.5393 34.2508L36.1962 33.5398Z" fill="#AD986E"/>
<path d="M43.7874 35.0001C43.4502 35.0001 43.1375 34.9408 42.8495 34.8153C42.5614 34.6933 42.312 34.5295 42.0977 34.3169C41.887 34.1043 41.7184 33.8534 41.5989 33.5606C41.4795 33.2713 41.4163 32.9576 41.4163 32.623C41.4163 32.285 41.476 31.9713 41.5989 31.682C41.7184 31.3927 41.887 31.1452 42.0977 30.9326C42.3085 30.72 42.5614 30.5527 42.8495 30.4307C43.1375 30.3088 43.4502 30.2495 43.7874 30.2495C44.1211 30.2495 44.4373 30.3088 44.7253 30.4307C45.0134 30.5527 45.2628 30.72 45.4736 30.9326C45.6844 31.1452 45.8495 31.3962 45.9724 31.682C46.0918 31.9713 46.1516 32.285 46.1516 32.623C46.1516 32.9576 46.0918 33.2713 45.9724 33.5606C45.853 33.8499 45.6844 34.1043 45.4736 34.3169C45.2628 34.5295 45.0134 34.6968 44.7253 34.8153C44.4373 34.9408 44.1247 35.0001 43.7874 35.0001ZM43.7874 34.0381C43.9877 34.0381 44.1668 33.9998 44.3249 33.9231C44.483 33.8464 44.62 33.7418 44.7289 33.6129C44.8413 33.4804 44.9256 33.3306 44.9853 33.1598C45.045 32.989 45.0731 32.8043 45.0731 32.6126C45.0731 32.4174 45.0415 32.2362 44.9853 32.0654C44.9256 31.8946 44.8413 31.7447 44.7289 31.6158C44.62 31.4868 44.483 31.3857 44.3249 31.3091C44.1668 31.2359 43.9877 31.1975 43.7874 31.1975C43.5872 31.1975 43.408 31.2359 43.2429 31.3091C43.0813 31.3823 42.9443 31.4868 42.8354 31.6158C42.723 31.7447 42.6387 31.8946 42.579 32.0654C42.5193 32.2362 42.4912 32.4209 42.4912 32.6126C42.4912 32.8043 42.5193 32.989 42.579 33.1598C42.6387 33.3306 42.723 33.4839 42.8354 33.6129C42.9479 33.7418 43.0849 33.8464 43.2429 33.9231C43.408 33.9998 43.5872 34.0381 43.7874 34.0381Z" fill="#AD986E"/>
<path d="M48.5684 30.3716H50.2616C50.5251 30.3716 50.7569 30.4099 50.9571 30.4831C51.1574 30.5563 51.3225 30.6574 51.4595 30.7898C51.593 30.9188 51.6948 31.0687 51.7581 31.2394C51.8248 31.4102 51.8564 31.5949 51.8564 31.7901C51.8564 32.0829 51.7932 32.3408 51.6632 32.5569C51.5333 32.7765 51.3506 32.9508 51.1152 33.0797L52.1269 34.8886H50.9958L50.1492 33.2296H49.5766V34.8886H48.5719V30.3716H48.5684ZM50.2054 32.407C50.3951 32.407 50.5461 32.3513 50.655 32.2397C50.7675 32.1247 50.8201 31.9853 50.8201 31.811C50.8201 31.6263 50.7675 31.4799 50.655 31.3719C50.5461 31.2638 50.3951 31.2081 50.2054 31.2081H49.5696V32.4035H50.2054V32.407Z" fill="#AD986E"/>
<path d="M55.443 31.2708H53.9711V30.3716H57.9441V31.2708H56.4793V34.8851H55.443V31.2708Z" fill="#AD986E"/>
</g>
<defs>
<clipPath id="clip0">
<rect width="82" height="35" fill="white"/>
</clipPath>
</defs>
</svg>
